<svg width="261" height="134" viewBox="0 0 261 134" fill="none" xmlns="http://www.w3.org/2000/svg">
<path d="M92 80.521H93H92ZM254 133.521L260.176 123.764L248.639 123.294L254 133.521ZM1.64101 13.6262C12.7238 4.3702 30.3201 1.0909 50.3959 2.21054C70.4318 3.32797 92.7412 8.81765 113.044 16.8693C133.355 24.9241 151.577 35.511 163.48 46.7688C175.44 58.0808 180.709 69.7363 176.087 80.1138L177.913 80.9276C183.091 69.3051 176.947 56.7529 164.854 45.3158C152.704 33.8244 134.233 23.1208 113.781 15.0101C93.3213 6.89621 70.7994 1.34536 50.5072 0.213647C30.2549 -0.915849 12.0262 2.34709 0.358986 12.0911L1.64101 13.6262ZM176.087 80.1138C166.489 101.66 145.679 110.253 127.21 109.148C108.648 108.037 93 97.244 93 80.521H91C91 98.798 108.052 110.005 127.09 111.144C146.221 112.289 167.911 103.381 177.913 80.9276L176.087 80.1138ZM93 80.521C93 64.234 102.965 50.7271 118.123 41.6233C133.283 32.5187 153.528 27.9006 173.745 29.4073C193.954 30.9134 214.058 38.5323 228.998 53.8057C243.925 69.0656 253.789 92.0584 253.368 124.496L255.367 124.522C255.794 91.6435 245.786 68.1076 230.428 52.4072C215.083 36.7204 194.488 28.9476 173.894 27.4128C153.307 25.8786 132.642 30.5704 117.093 39.9087C101.543 49.2478 91 63.3169 91 80.521H93Z" fill="#5922B0"/>
</svg>
